<mxfile host="app.diagrams.net" agent="Mozilla/5.0 (Windows NT 10.0; Win64; x64) AppleWebKit/537.36 (KHTML, like Gecko) Chrome/132.0.0.0 Safari/537.36 Edg/132.0.0.0" version="26.0.10">
  <diagram name="Page-1" id="IhB-HihJnPcm_Yn5O4lK">
    <mxGraphModel dx="976" dy="418" grid="1" gridSize="10" guides="1" tooltips="1" connect="1" arrows="1" fold="1" page="1" pageScale="1" pageWidth="850" pageHeight="1100" math="0" shadow="0">
      <root>
        <mxCell id="0" />
        <mxCell id="1" parent="0" />
        <mxCell id="8GS3tKve6xg2nIcweIjZ-3" value="" style="ellipse;html=1;shape=startState;fillColor=#000000;strokeColor=#FF0500;" vertex="1" parent="1">
          <mxGeometry x="20" y="45" width="30" height="30" as="geometry" />
        </mxCell>
        <mxCell id="8GS3tKve6xg2nIcweIjZ-4" value="" style="edgeStyle=orthogonalEdgeStyle;rounded=0;orthogonalLoop=1;jettySize=auto;html=1;strokeColor=#FF0500;" edge="1" parent="1" source="8GS3tKve6xg2nIcweIjZ-3" target="8GS3tKve6xg2nIcweIjZ-6">
          <mxGeometry relative="1" as="geometry" />
        </mxCell>
        <mxCell id="8GS3tKve6xg2nIcweIjZ-5" value="" style="edgeStyle=orthogonalEdgeStyle;rounded=0;orthogonalLoop=1;jettySize=auto;html=1;strokeColor=#FF0500;" edge="1" parent="1" source="8GS3tKve6xg2nIcweIjZ-6">
          <mxGeometry relative="1" as="geometry">
            <mxPoint x="300" y="60" as="targetPoint" />
          </mxGeometry>
        </mxCell>
        <mxCell id="8GS3tKve6xg2nIcweIjZ-6" value="Xóa ca làm việc" style="rounded=1;whiteSpace=wrap;html=1;arcSize=40;fontColor=#000000;fillColor=#ffffc0;strokeColor=#FF0500;" vertex="1" parent="1">
          <mxGeometry x="100" y="40" width="120" height="40" as="geometry" />
        </mxCell>
        <mxCell id="8GS3tKve6xg2nIcweIjZ-7" style="edgeStyle=orthogonalEdgeStyle;rounded=0;orthogonalLoop=1;jettySize=auto;html=1;entryX=0.5;entryY=0;entryDx=0;entryDy=0;strokeColor=#FF0500;" edge="1" parent="1" target="8GS3tKve6xg2nIcweIjZ-9">
          <mxGeometry relative="1" as="geometry">
            <Array as="points">
              <mxPoint x="360" y="100" />
              <mxPoint x="160" y="100" />
            </Array>
            <mxPoint x="360" y="80" as="sourcePoint" />
          </mxGeometry>
        </mxCell>
        <mxCell id="8GS3tKve6xg2nIcweIjZ-32" value="" style="edgeStyle=orthogonalEdgeStyle;rounded=0;orthogonalLoop=1;jettySize=auto;html=1;strokeColor=light-dark(#FF0000,#FFFFFF);" edge="1" parent="1" source="8GS3tKve6xg2nIcweIjZ-9" target="8GS3tKve6xg2nIcweIjZ-31">
          <mxGeometry relative="1" as="geometry" />
        </mxCell>
        <mxCell id="8GS3tKve6xg2nIcweIjZ-9" value="Chọn nhân viên" style="rounded=1;whiteSpace=wrap;html=1;arcSize=40;fontColor=#000000;fillColor=#ffffc0;strokeColor=#FF0500;" vertex="1" parent="1">
          <mxGeometry x="100" y="120" width="120" height="40" as="geometry" />
        </mxCell>
        <mxCell id="8GS3tKve6xg2nIcweIjZ-10" value="Hiển thị danh sách&lt;div&gt;nhân viên&lt;/div&gt;" style="rounded=1;whiteSpace=wrap;html=1;arcSize=50;fontColor=#000000;fillColor=#ffffc0;strokeColor=#ff0000;" vertex="1" parent="1">
          <mxGeometry x="299" y="40" width="120" height="40" as="geometry" />
        </mxCell>
        <mxCell id="8GS3tKve6xg2nIcweIjZ-11" value="" style="edgeStyle=orthogonalEdgeStyle;rounded=0;orthogonalLoop=1;jettySize=auto;html=1;strokeColor=#FF0500;" edge="1" parent="1" source="8GS3tKve6xg2nIcweIjZ-13" target="8GS3tKve6xg2nIcweIjZ-15">
          <mxGeometry relative="1" as="geometry" />
        </mxCell>
        <mxCell id="8GS3tKve6xg2nIcweIjZ-12" value="" style="edgeStyle=orthogonalEdgeStyle;rounded=0;orthogonalLoop=1;jettySize=auto;html=1;strokeColor=#FF0500;" edge="1" parent="1" source="8GS3tKve6xg2nIcweIjZ-13" target="8GS3tKve6xg2nIcweIjZ-19">
          <mxGeometry relative="1" as="geometry" />
        </mxCell>
        <mxCell id="8GS3tKve6xg2nIcweIjZ-13" value="Xác nhận xóa&lt;br&gt;&lt;div&gt;ca làm việc&lt;/div&gt;" style="rhombus;whiteSpace=wrap;html=1;fontColor=#000000;fillColor=#ffffc0;strokeColor=#FF0500;" vertex="1" parent="1">
          <mxGeometry x="299" y="245" width="120" height="80" as="geometry" />
        </mxCell>
        <mxCell id="8GS3tKve6xg2nIcweIjZ-14" value="" style="edgeStyle=orthogonalEdgeStyle;rounded=0;orthogonalLoop=1;jettySize=auto;html=1;strokeColor=#FF0500;" edge="1" parent="1" source="8GS3tKve6xg2nIcweIjZ-15" target="8GS3tKve6xg2nIcweIjZ-18">
          <mxGeometry relative="1" as="geometry" />
        </mxCell>
        <mxCell id="8GS3tKve6xg2nIcweIjZ-15" value="Xóa ca làm việc khỏi CSDL" style="rounded=1;whiteSpace=wrap;html=1;arcSize=40;fontColor=#000000;fillColor=#ffffc0;strokeColor=#FF0500;" vertex="1" parent="1">
          <mxGeometry x="299" y="365" width="120" height="40" as="geometry" />
        </mxCell>
        <mxCell id="8GS3tKve6xg2nIcweIjZ-16" value="" style="edgeStyle=orthogonalEdgeStyle;rounded=0;orthogonalLoop=1;jettySize=auto;html=1;strokeColor=#FF0500;" edge="1" parent="1" source="8GS3tKve6xg2nIcweIjZ-18" target="8GS3tKve6xg2nIcweIjZ-19">
          <mxGeometry relative="1" as="geometry" />
        </mxCell>
        <mxCell id="8GS3tKve6xg2nIcweIjZ-37" style="edgeStyle=orthogonalEdgeStyle;rounded=0;orthogonalLoop=1;jettySize=auto;html=1;entryX=1;entryY=0.5;entryDx=0;entryDy=0;strokeColor=light-dark(#FF0000,#FFFFFF);" edge="1" parent="1" source="8GS3tKve6xg2nIcweIjZ-18" target="8GS3tKve6xg2nIcweIjZ-10">
          <mxGeometry relative="1" as="geometry">
            <Array as="points">
              <mxPoint x="620" y="385" />
              <mxPoint x="620" y="60" />
            </Array>
          </mxGeometry>
        </mxCell>
        <mxCell id="8GS3tKve6xg2nIcweIjZ-18" value="Xóa ca làm việc&lt;div&gt;khác&lt;/div&gt;" style="rhombus;whiteSpace=wrap;html=1;fontColor=#000000;fillColor=#ffffc0;strokeColor=#FF0500;" vertex="1" parent="1">
          <mxGeometry x="459" y="345" width="120" height="80" as="geometry" />
        </mxCell>
        <mxCell id="8GS3tKve6xg2nIcweIjZ-19" value="" style="ellipse;html=1;shape=endState;fillColor=#000000;strokeColor=#ff0000;" vertex="1" parent="1">
          <mxGeometry x="504" y="270" width="30" height="30" as="geometry" />
        </mxCell>
        <mxCell id="8GS3tKve6xg2nIcweIjZ-20" value="Đúng" style="text;html=1;align=center;verticalAlign=middle;whiteSpace=wrap;rounded=0;fontFamily=Helvetica;fontSize=12;fontColor=#000000;" vertex="1" parent="1">
          <mxGeometry x="349" y="315" width="60" height="30" as="geometry" />
        </mxCell>
        <mxCell id="8GS3tKve6xg2nIcweIjZ-21" value="Đúng" style="text;html=1;align=center;verticalAlign=middle;whiteSpace=wrap;rounded=0;fontFamily=Helvetica;fontSize=12;fontColor=#000000;" vertex="1" parent="1">
          <mxGeometry x="560" y="355" width="60" height="30" as="geometry" />
        </mxCell>
        <mxCell id="8GS3tKve6xg2nIcweIjZ-22" value="Sai" style="text;html=1;align=center;verticalAlign=middle;resizable=0;points=[];autosize=1;strokeColor=none;fillColor=none;" vertex="1" parent="1">
          <mxGeometry x="409" y="255" width="40" height="30" as="geometry" />
        </mxCell>
        <mxCell id="8GS3tKve6xg2nIcweIjZ-23" value="Sai" style="text;html=1;align=center;verticalAlign=middle;resizable=0;points=[];autosize=1;strokeColor=none;fillColor=none;" vertex="1" parent="1">
          <mxGeometry x="479" y="325" width="40" height="30" as="geometry" />
        </mxCell>
        <mxCell id="8GS3tKve6xg2nIcweIjZ-35" style="edgeStyle=orthogonalEdgeStyle;rounded=0;orthogonalLoop=1;jettySize=auto;html=1;entryX=0.5;entryY=0;entryDx=0;entryDy=0;strokeColor=light-dark(#FF0000,#FFFFFF);" edge="1" parent="1" source="8GS3tKve6xg2nIcweIjZ-30" target="8GS3tKve6xg2nIcweIjZ-13">
          <mxGeometry relative="1" as="geometry" />
        </mxCell>
        <mxCell id="8GS3tKve6xg2nIcweIjZ-30" value="Chọn ca làm việc" style="rounded=1;whiteSpace=wrap;html=1;arcSize=40;fontColor=#000000;fillColor=#ffffc0;strokeColor=#FF0500;" vertex="1" parent="1">
          <mxGeometry x="100" y="200" width="120" height="40" as="geometry" />
        </mxCell>
        <mxCell id="8GS3tKve6xg2nIcweIjZ-33" style="edgeStyle=orthogonalEdgeStyle;rounded=0;orthogonalLoop=1;jettySize=auto;html=1;entryX=0.5;entryY=0;entryDx=0;entryDy=0;strokeColor=light-dark(#FF0000,#FFFFFF);" edge="1" parent="1" source="8GS3tKve6xg2nIcweIjZ-31" target="8GS3tKve6xg2nIcweIjZ-30">
          <mxGeometry relative="1" as="geometry">
            <Array as="points">
              <mxPoint x="359" y="180" />
              <mxPoint x="160" y="180" />
            </Array>
          </mxGeometry>
        </mxCell>
        <mxCell id="8GS3tKve6xg2nIcweIjZ-31" value="Hiển thị danh sách&lt;div&gt;ca làm việc&lt;/div&gt;" style="rounded=1;whiteSpace=wrap;html=1;arcSize=50;fontColor=#000000;fillColor=#ffffc0;strokeColor=#ff0000;" vertex="1" parent="1">
          <mxGeometry x="299" y="120" width="120" height="40" as="geometry" />
        </mxCell>
      </root>
    </mxGraphModel>
  </diagram>
</mxfile>
